# xmcd
#
# Track frame offsets:
#	150
#	17739
#	33956
#	59064
#	82114
#	100795
#	122805
#	137436
#	157238
#	176753
#	193638
#	219878
#	237336
#	255447
#	274888
#	294079
#
# Disc length: 4193 seconds
#
# Revision: 4
# Processed by: cddbd v1.5.2PL0 Copyright (c) Steve Scherf et al.
# Submitted via: audiograbber 1.83.01
#
DISCID=e3105f10
DTITLE=Florence and The Machine - How Big, How Blue, How Beautiful [Deluxe Editio
DTITLE=n]
DYEAR=2015
DGENRE=Pop
TTITLE0=Ship To Wreck
TTITLE1=What Kind Of Man
TTITLE2=How Big, How Blue, How Beautiful
TTITLE3=Queen Of Peace
TTITLE4=Various Storms and Saints
TTITLE5=Delilah
TTITLE6=Long and Lost
TTITLE7=Caught
TTITLE8=Third Eye
TTITLE9=St. Jude
TTITLE10=Mother
TTITLE11=Hiding
TTITLE12=Make Up Your Mind
TTITLE13=Which Witch (Demo)
TTITLE14=Third Eye (Demo)
TTITLE15=How Big, How Blue, How Beautiful (Demo)
EXTD=
EXTT0=
EXTT1=
EXTT2=
EXTT3=
EXTT4=
EXTT5=
EXTT6=
EXTT7=
EXTT8=
EXTT9=
EXTT10=
EXTT11=
EXTT12=
EXTT13=
EXTT14=
EXTT15=
PLAYORDER=
